<svg xmlns="http://www.w3.org/2000/svg" style="display:none">
  <symbol id="ico-services" viewBox="0 0 24 24" fill="none"><rect x="3" y="3" width="7" height="7" rx="1.5" stroke="currentColor" stroke-width="1.6"/><rect x="14" y="3" width="7" height="7" rx="1.5" stroke="currentColor" stroke-width="1.6"/><rect x="3" y="14" width="7" height="7" rx="1.5" stroke="currentColor" stroke-width="1.6"/><rect x="14" y="14" width="7" height="7" rx="1.5" stroke="currentColor" stroke-width="1.6"/></symbol>
  <symbol id="ico-about" viewBox="0 0 24 24" fill="none"><circle cx="12" cy="12" r="9" stroke="currentColor" stroke-width="1.6"/><path d="M12 11V16M12 8H12.01" stroke="currentColor" stroke-width="1.6" stroke-linecap="round"/></symbol>
  <symbol id="ico-contact" viewBox="0 0 24 24" fill="none"><rect x="3" y="5" width="18" height="14" rx="2" stroke="currentColor" stroke-width="1.6"/><path d="M3 7L12 13L21 7" stroke="currentColor" stroke-width="1.6"/></symbol>
  <symbol id="ico-arrow" viewBox="0 0 24 24" fill="none"><path d="M5 12H19M19 12L13 6M19 12L13 18" stroke="currentColor" stroke-width="1.8" stroke-linecap="round" stroke-linejoin="round"/></symbol>
  <symbol id="ico-web" viewBox="0 0 24 24" fill="none"><rect x="2" y="4" width="20" height="14" rx="2" stroke="currentColor" stroke-width="1.6"/><path d="M2 8H22" stroke="currentColor" stroke-width="1.6"/></symbol>
  <symbol id="ico-mobile" viewBox="0 0 24 24" fill="none"><rect x="7" y="2" width="10" height="20" rx="2" stroke="currentColor" stroke-width="1.6"/><circle cx="12" cy="18" r="1" fill="currentColor"/></symbol>
  <symbol id="ico-code" viewBox="0 0 24 24" fill="none"><path d="M8 8L4 12L8 16" stroke="currentColor" stroke-width="1.6" stroke-linecap="round"/><path d="M16 8L20 12L16 16" stroke="currentColor" stroke-width="1.6" stroke-linecap="round"/><path d="M14 6L10 18" stroke="currentColor" stroke-width="1.6" stroke-linecap="round"/></symbol>
  <symbol id="ico-ads" viewBox="0 0 24 24" fill="none"><rect x="3" y="3" width="18" height="18" rx="2" stroke="currentColor" stroke-width="1.6"/><path d="M7 15L11 9L15 13L19 8" stroke="currentColor" stroke-width="1.6" stroke-linecap="round"/></symbol>
  <symbol id="ico-3d" viewBox="0 0 24 24" fill="none"><path d="M12 2L21 7V17L12 22L3 17V7L12 2Z" stroke="currentColor" stroke-width="1.6" stroke-linejoin="round"/></symbol>
  <symbol id="ico-design" viewBox="0 0 24 24" fill="none"><circle cx="12" cy="12" r="8" stroke="currentColor" stroke-width="1.6"/><path d="M12 8V16M8 12H16" stroke="currentColor" stroke-width="1.6"/></symbol>
  <symbol id="ico-av" viewBox="0 0 24 24" fill="none"><path d="M5 9V15C5 16.1 5.9 17 7 17H13C14.1 17 15 16.1 15 15V9C15 7.9 14.1 7 13 7H7C5.9 7 5 7.9 5 9Z" stroke="currentColor" stroke-width="1.6"/><path d="M15 10L19 8V16L15 14" stroke="currentColor" stroke-width="1.6" stroke-linejoin="round"/></symbol>
  <symbol id="ico-video" viewBox="0 0 24 24" fill="none"><rect x="2" y="6" width="15" height="12" rx="2" stroke="currentColor" stroke-width="1.6"/><path d="M17 10L22 7V17L17 14" stroke="currentColor" stroke-width="1.6" stroke-linejoin="round"/></symbol>
  <symbol id="ico-phone" viewBox="0 0 24 24" fill="none"><path d="M6.5 4H9L10 8L8 9C9.2 11.6 11.4 13.8 14 15L15 13L19 14V16.5C19 17.3 18.3 18 17.5 18C10.6 18 5 12.4 5 5.5C5 4.7 5.7 4 6.5 4Z" stroke="currentColor" stroke-width="1.6" stroke-linejoin="round"/></symbol>
  <symbol id="ico-mail" viewBox="0 0 24 24" fill="none"><rect x="3" y="5" width="18" height="14" rx="2" stroke="currentColor" stroke-width="1.6"/><path d="M3 7L12 13L21 7" stroke="currentColor" stroke-width="1.6"/></symbol>
  <symbol id="ico-pin" viewBox="0 0 24 24" fill="none"><path d="M12 21S5 14.5 5 9.5C5 6.5 7.5 4 12 4C16.5 4 19 6.5 19 9.5C19 14.5 12 21 12 21Z" stroke="currentColor" stroke-width="1.6"/><circle cx="12" cy="9.5" r="2.5" stroke="currentColor" stroke-width="1.6"/></symbol>
  <symbol id="ico-chat" viewBox="0 0 24 24" fill="none"><path d="M4 5H20V15H8L4 19V5Z" stroke="currentColor" stroke-width="1.6" stroke-linejoin="round"/></symbol>
</svg>
